<svg width="739" height="100" viewBox="0 0 739 100" fill="none" xmlns="http://www.w3.org/2000/svg">
<g clip-path="url(#clip0_2046_20)">
<path d="M86.7776 50.8923L66.1367 71.2968C61.4701 75.1571 55.547 78.4659 49.0855 78.4659C34.1881 78.4659 22.1626 66.1497 22.1626 50.8923C22.1626 35.6349 34.1881 23.3186 49.0855 23.3186C56.4444 23.3186 63.2649 26.4436 68.1111 31.4069L78.7007 41.7011L86.7776 50.8923ZM96.1109 26.4436C96.1109 26.4436 74.0341 -1.86529 47.8291 0.156772C21.8036 2.36266 9.778 19.826 9.778 19.826C9.778 19.826 -3.68348 37.1054 0.983165 60.2673C5.64981 83.613 23.2395 92.8042 23.2395 92.8042C23.2395 92.8042 42.0855 103.834 60.2137 98.3189C78.3418 92.8042 83.9059 84.8997 83.9059 84.8997L101.854 66.3335L124.829 88.9439C124.829 88.9439 140.085 103.834 163.957 99.0542C163.957 99.0542 186.213 96.6645 199.136 73.3188C212.059 49.9731 199.136 27.5466 199.136 27.5466C199.136 27.5466 186.034 -2.41677 149.418 0.156772C136.136 1.07589 123.752 10.4509 113.521 22.2157L102.572 33.9804L96.1109 26.4436ZM156.059 78.2821C149.598 78.2821 143.495 75.1571 139.008 71.1129L117.829 50.3408L137.034 31.5907C141.88 26.6275 148.521 23.5025 156.059 23.5025C170.957 23.5025 182.982 35.8187 182.982 51.0761C182.982 66.3335 170.957 78.2821 156.059 78.2821Z" fill="white"/>
<path d="M86.7786 50.8921L101.855 66.3333L96.1119 72.2157L79.9581 57.3259L86.7786 50.8921Z" fill="url(#paint0_linear_2046_20)"/>
<path d="M272.906 79.937C257.47 79.937 247.957 71.1134 247.957 53.6501V26.4441C247.957 22.7676 250.829 20.0103 254.239 20.0103C257.829 20.0103 260.521 22.9514 260.521 26.4441V53.4663C260.521 63.0251 265.188 67.9884 272.906 67.9884C280.624 67.9884 285.29 63.209 285.29 53.8339V26.4441C285.29 22.7676 288.162 20.0103 291.572 20.0103C295.162 20.0103 297.854 22.9514 297.854 26.4441V53.2824C298.213 71.2972 288.521 79.937 272.906 79.937Z" fill="white"/>
<path d="M361.931 76.0764L336.085 41.3336V72.3999C336.085 75.8926 333.213 78.8338 329.803 78.8338C326.392 78.8338 323.521 75.8926 323.521 72.3999V27.9144C323.521 23.5027 327.11 19.8262 331.418 19.8262C333.931 19.8262 336.085 20.9291 337.7 22.9512L362.469 56.2234V26.4438C362.469 22.9512 365.341 20.01 368.751 20.01C372.161 20.01 375.033 22.9512 375.033 26.4438V71.6646C375.033 75.7088 371.802 79.0176 367.854 79.0176C365.341 79.0176 363.187 77.9146 361.931 76.0764Z" fill="white"/>
<path d="M408.059 20.0103C411.648 20.0103 414.341 22.9514 414.341 26.4441V72.584C414.341 76.2605 411.469 79.0179 408.059 79.0179C404.469 79.0179 401.776 76.0767 401.776 72.584V26.4441C401.597 22.9514 404.469 20.0103 408.059 20.0103Z" fill="white"/>
<path d="M467.29 79.0176C450.957 79.0176 438.752 65.9661 438.752 49.6057V49.4219C438.752 33.2453 450.777 19.8262 467.828 19.8262C475.187 19.8262 480.393 21.4806 484.7 24.4218C487.572 26.4438 488.29 30.488 485.957 33.2453L485.418 33.7968C483.623 36.0027 480.392 36.3704 478.059 34.7159C475.008 32.6939 471.598 31.4071 467.649 31.4071C458.316 31.4071 451.495 39.4954 451.495 49.2381V50.1572C451.495 59.716 459.034 67.8043 468.367 67.4367C472.495 67.2528 475.546 65.9661 478.598 63.944C480.931 62.2896 483.982 62.6572 485.957 64.6793C488.29 67.2528 488.11 71.297 485.418 73.5029C480.751 76.9955 475.187 79.0176 467.29 79.0176Z" fill="white"/>
<path d="M540.52 31.9586V72.5837C540.52 76.2602 537.648 79.0176 534.238 79.0176C530.648 79.0176 527.956 76.0764 527.956 72.5837V31.9586H516.289C513.058 31.9586 510.366 29.2012 510.366 25.8924C510.366 22.5835 513.058 19.8262 516.289 19.8262H552.366C555.596 19.8262 558.289 22.5835 558.289 25.8924C558.289 29.2012 555.596 31.9586 552.366 31.9586H540.52Z" fill="white"/>
<path d="M587.007 20.0103C590.597 20.0103 593.289 22.9514 593.289 26.4441V72.584C593.289 76.2605 590.417 79.0179 587.007 79.0179C583.418 79.0179 580.725 76.0767 580.725 72.584V26.4441C580.725 22.9514 583.597 20.0103 587.007 20.0103Z" fill="white"/>
<path d="M644.084 79.2017C640.673 79.2017 637.622 77.1796 636.366 73.8708L618.776 29.0176C617.161 24.7897 620.212 20.0103 624.699 20.0103C627.391 20.0103 629.725 21.6647 630.622 24.2382L644.084 61.3707L657.545 24.2382C658.443 21.6647 660.776 20.0103 663.468 20.0103C667.955 20.0103 670.827 24.6059 669.212 28.8338L651.622 74.0546C650.366 77.1796 647.314 79.2017 644.084 79.2017Z" fill="white"/>
<path d="M701.699 20.0103H732.391C735.442 20.0103 737.955 22.5838 737.955 25.7088C737.955 28.8338 735.442 31.4074 732.391 31.4074H707.084V43.3559H728.622C731.673 43.3559 734.186 45.9295 734.186 49.0545C734.186 52.1795 731.673 54.7531 728.622 54.7531H707.084V67.2531H732.75C735.801 67.2531 738.314 69.8267 738.314 72.9517C738.314 76.0767 735.801 78.6502 732.75 78.6502H701.699C697.75 78.6502 694.52 75.3414 694.52 71.2972V27.3632C694.52 23.3191 697.571 20.0103 701.699 20.0103Z" fill="white"/>
</g>
<defs>
<linearGradient id="paint0_linear_2046_20" x1="83.8402" y1="69.7734" x2="103.093" y2="49.2118" gradientUnits="userSpaceOnUse">
<stop offset="0.2132" stop-color="#2483C5" stop-opacity="0"/>
<stop offset="0.2645" stop-color="#1F70A8" stop-opacity="0.0651916"/>
<stop offset="0.3531" stop-color="#17527C" stop-opacity="0.1777"/>
<stop offset="0.4457" stop-color="#103955" stop-opacity="0.2955"/>
<stop offset="0.5412" stop-color="#0A2436" stop-opacity="0.4169"/>
<stop offset="0.6406" stop-color="#06141E" stop-opacity="0.5432"/>
<stop offset="0.7456" stop-color="#02090D" stop-opacity="0.6766"/>
<stop offset="0.8597" stop-color="#010203" stop-opacity="0.8216"/>
<stop offset="1"/>
</linearGradient>
<clipPath id="clip0_2046_20">
<rect width="739" height="100" fill="white"/>
</clipPath>
</defs>
</svg>
